<?xml version="1.0" standalone="no"?>
<svg version="1.0" xmlns="http://www.w3.org/2000/svg"
 width="800.000000pt" height="800.000000pt" viewBox="0 0 800.000000 800.000000"
 preserveAspectRatio="xMidYMid meet">
<g transform="translate(0.000000,800.000000) scale(0.100000,-0.100000)"
fill="#000000" stroke="none">
<path d="M5904 7958 c-130 -92 -238 -185 -383 -329 -394 -391 -686 -920 -715
-1297 -3 -31 -5 -59 -6 -62 -8 -30 4 -228 20 -319 18 -105 19 -113 57 -241 45
-157 81 -244 216 -530 93 -197 127 -271 127 -276 0 -2 17 -39 38 -82 21 -42
39 -80 41 -84 1 -4 10 -28 21 -53 11 -25 19 -46 18 -48 -1 -1 5 -15 15 -32 18
-32 77 -163 77 -170 0 -2 14 -34 30 -70 17 -36 30 -70 30 -75 0 -5 11 -33 24
-62 14 -29 28 -66 31 -81 4 -15 11 -30 16 -33 5 -3 9 -14 9 -25 0 -10 4 -27
10 -37 26 -45 139 -433 155 -532 3 -19 8 -42 10 -50 3 -8 7 -31 10 -50 2 -19
7 -46 9 -60 8 -42 25 -174 24 -190 0 -8 3 -42 7 -75 6 -54 10 -389 5 -475 -4
-62 -2 -66 20 -42 11 12 20 25 20 31 0 5 4 11 8 13 8 3 264 329 293 374 9 13
28 38 42 54 15 16 27 34 27 39 0 5 4 11 8 13 5 2 48 57 95 123 47 66 90 125
95 130 52 63 312 482 312 503 0 5 4 12 9 14 13 4 199 386 207 423 1 6 17 44
34 85 92 217 208 579 225 700 2 14 6 32 9 40 3 8 7 31 10 50 3 19 8 46 11 60
2 14 7 45 9 70 3 25 9 68 13 95 8 61 9 518 0 560 -3 17 -9 62 -13 100 -4 39
-9 72 -9 75 -1 3 -5 23 -9 45 -17 88 -48 221 -58 245 -6 14 -12 39 -15 55 -6
37 -85 247 -124 331 -16 34 -29 66 -29 72 0 6 -3 12 -7 14 -5 2 -20 28 -36 58
-43 86 -164 285 -195 320 -7 8 -36 44 -63 80 -147 191 -313 351 -564 545 -10
8 -25 15 -32 15 -7 0 -13 4 -13 8 0 7 -58 48 -106 75 -6 4 -38 -12 -70 -35z"/>
<path d="M1718 6445 c-2 -2 -41 -6 -88 -10 -47 -3 -92 -8 -100 -10 -8 -2 -40
-7 -70 -10 -47 -5 -217 -37 -272 -51 -10 -2 -26 -6 -36 -8 -87 -20 -326 -97
-371 -121 l-30 -15 4 -217 c2 -120 6 -234 8 -253 3 -19 8 -56 11 -82 8 -60 16
-115 23 -153 3 -16 7 -39 8 -50 2 -11 4 -22 5 -25 1 -3 2 -8 1 -12 0 -4 4 -19
10 -34 5 -15 12 -39 14 -53 2 -14 6 -37 10 -51 3 -14 8 -32 10 -40 2 -8 4 -15
5 -15 1 0 3 -10 6 -23 10 -55 101 -316 141 -402 108 -237 259 -487 376 -623
127 -149 187 -210 292 -302 60 -52 191 -155 198 -155 2 0 39 -24 83 -52 44
-29 134 -79 200 -111 65 -33 127 -63 136 -68 10 -5 25 -9 33 -9 8 0 15 -5 15
-10 0 -6 3 -9 8 -8 7 2 80 -21 97 -31 6 -3 15 -6 20 -7 6 -1 39 -12 75 -24 36
-12 73 -23 82 -25 9 -2 50 -13 90 -24 81 -23 232 -56 293 -66 70 -10 99 -15
130 -22 17 -3 48 -7 70 -8 22 -2 47 -5 55 -8 8 -4 44 -8 80 -11 36 -3 79 -8
95 -10 17 -3 55 -7 85 -11 30 -3 73 -8 95 -11 22 -3 56 -7 75 -10 19 -3 53 -8
75 -10 22 -3 51 -7 65 -9 14 -2 41 -6 60 -9 77 -11 98 -15 170 -31 41 -9 80
-17 85 -19 6 -2 28 -6 50 -10 22 -4 50 -11 62 -16 l23 -10 -20 -32 c-11 -18
-28 -49 -39 -68 -10 -19 -114 -174 -230 -343 -116 -170 -211 -311 -211 -314 0
-2 -14 -24 -31 -49 -17 -25 -56 -95 -88 -157 -116 -228 -160 -382 -188 -647
-13 -127 -5 -555 12 -620 2 -8 6 -40 10 -70 3 -30 8 -71 11 -90 3 -19 7 -48 9
-65 2 -16 4 -31 5 -32 3 -4 5 -12 14 -66 13 -82 45 -233 71 -337 7 -30 16 -73
20 -95 5 -33 22 -91 30 -103 5 -6 222 57 340 98 71 25 70 24 209 89 59 28 110
51 112 51 3 0 10 5 17 10 7 6 51 34 100 63 153 91 288 198 432 342 77 77 149
151 160 165 53 68 175 240 170 240 -3 0 5 15 18 32 45 60 193 360 200 405 1
10 6 23 10 30 8 13 75 225 81 258 2 11 7 38 12 60 4 22 9 49 10 60 1 11 3 20
4 20 5 0 21 106 25 165 2 25 6 70 9 100 9 95 18 301 17 415 -1 178 -19 424
-41 555 -6 30 -12 71 -15 90 -2 19 -7 46 -10 60 -3 14 -8 41 -11 60 -3 19 -12
62 -20 95 -8 33 -17 74 -20 90 -3 17 -12 48 -19 70 -8 22 -19 60 -26 85 -15
54 -14 51 -22 70 -3 8 -13 40 -22 70 -10 30 -23 69 -30 85 -7 17 -36 88 -65
160 -29 71 -61 150 -72 175 -27 62 -165 340 -181 365 -6 11 -39 62 -71 115
-33 52 -62 97 -65 100 -3 3 -27 37 -53 75 -26 39 -55 79 -65 90 -10 11 -40 50
-68 85 -96 124 -310 342 -455 464 -47 39 -90 76 -96 81 -6 6 -23 19 -38 30
-16 11 -44 33 -64 49 -21 15 -89 63 -152 105 -142 93 -147 96 -190 119 -19 10
-57 32 -85 48 -80 48 -266 136 -395 188 -36 15 -74 31 -85 36 -51 23 -371 120
-440 134 -11 2 -51 11 -90 20 -112 25 -244 45 -410 62 -53 6 -482 13 -487 9z"/>
</g>
</svg>
